<svg width="30" height="28" viewBox="0 0 30 28" fill="none" xmlns="http://www.w3.org/2000/svg">
<path d="M6.85059 21.6271C6.85059 21.9203 7.10344 22.1585 7.41395 22.1585H20.2339V20.1293C20.2339 19.4847 20.7926 18.9581 21.4754 18.9581H23.3628V11.4717H6.85111L6.85059 21.6271ZM10.2741 16.4268L11.321 15.2197C11.4547 15.0657 11.6984 15.0505 11.8525 15.1865L14.0108 17.0954C14.1526 17.2208 14.3733 17.2194 14.5131 17.092L18.8922 13.1036C19.0354 12.9732 19.2625 12.9751 19.403 13.1079L20.405 14.0531C20.5489 14.1889 20.5471 14.4089 20.4014 14.5427L14.5052 19.958C14.3687 20.0834 14.1531 20.0884 14.0102 19.9698L10.3155 16.9027C10.168 16.7804 10.1499 16.5698 10.2741 16.4268Z" fill="#47AF5B"/>
<path d="M9.61806 9.22379H9.7168C10.3725 9.22379 10.9091 8.71737 10.9091 8.09879V6.96875H8.42554V8.09879C8.42554 8.71785 8.96206 9.22379 9.61806 9.22379Z" fill="#47AF5B"/>
<path d="M20.5346 9.22379H20.6333C21.289 9.22379 21.8256 8.71737 21.8256 8.09879V6.96875H19.342V8.09879C19.342 8.71785 19.8786 9.22379 20.5346 9.22379Z" fill="#47AF5B"/>
<path d="M15.1068 0.0615234C6.92833 0.0615234 0.298584 6.31558 0.298584 14.0306C0.298584 21.7455 6.92833 27.9996 15.1068 27.9996C23.2852 27.9996 29.9149 21.7455 29.9149 14.0306C29.9147 6.31558 23.2852 0.0615234 15.1068 0.0615234ZM24.7196 19.4084C24.7196 19.6395 24.6461 19.8679 24.4943 20.0489C24.4795 20.0663 24.4649 20.0822 24.4514 20.0954L21.2404 23.2429C21.1549 23.3266 21.0506 23.3808 20.9398 23.4109V23.439H7.41384C6.35321 23.439 5.49336 22.6279 5.49336 21.6274V8.60787C5.49336 7.60734 6.35321 6.79622 7.41384 6.79622H8.42495V5.74634C8.42495 5.12778 8.96179 4.62135 9.61726 4.62135H9.716C10.3717 4.62135 10.9083 5.12728 10.9083 5.7461V6.79598H19.3415V5.7461C19.3415 5.12753 19.8783 4.6211 20.5341 4.6211H20.6328C21.2885 4.6211 21.8251 5.12703 21.8251 5.74585V6.79573H22.7987C23.8594 6.79573 24.7189 7.60685 24.7189 8.60713V19.4085L24.7196 19.4084Z" fill="#47AF5B"/>
</svg>
