<svg width="37" height="24" viewBox="0 0 37 24" fill="none" xmlns="http://www.w3.org/2000/svg">
<path d="M23.8827 13.0127L21.0602 11.876L18.3442 13.7051L15.6282 11.876L12.8124 13.0127C12.3124 13.2156 11.883 13.564 11.5793 14.0142C11.2754 14.4648 11.1107 14.9961 11.1057 15.5417V23.7939H25.5896V15.5417C25.583 14.9968 25.4176 14.4658 25.1137 14.016C24.8102 13.5661 24.3818 13.217 23.8829 13.0128L23.8827 13.0127Z" fill="#47AF5B"/>
<path d="M22.8735 5.45304C22.8735 7.98636 20.8459 10.0399 18.3443 10.0399C15.8429 10.0399 13.8152 7.98644 13.8152 5.45304C13.8152 2.91973 15.8428 0.866211 18.3443 0.866211C20.8458 0.866211 22.8735 2.91964 22.8735 5.45304Z" fill="#47AF5B"/>
<path d="M6.57696 14.5067L3.85439 12.6705L1.73585 13.7465C1.28504 13.9741 0.906087 14.3242 0.640848 14.7581C0.375906 15.1916 0.235192 15.6915 0.234863 16.2015V22.7589H9.2935V14.5068C9.28922 13.9254 9.39994 13.3491 9.61908 12.8118L9.29383 12.6436L6.57696 14.5067Z" fill="#47AF5B"/>
<path d="M30.0979 15.1823L33.0607 13.3049L35.3663 14.4051C35.8569 14.6378 36.2693 14.9957 36.5579 15.4393C36.8463 15.8826 36.9994 16.3938 36.9998 16.9152V23.6199H27.1415V15.1824C27.1462 14.588 27.0257 13.9987 26.7872 13.4493L27.1412 13.2773L30.0979 15.1823Z" fill="#47AF5B"/>
<path d="M10.1962 7.16826C10.1962 9.19264 8.57593 10.8336 6.577 10.8336C4.57808 10.8336 2.95776 9.19264 2.95776 7.16826C2.95776 5.14422 4.57808 3.50293 6.577 3.50293C8.57593 3.50293 10.1962 5.14422 10.1962 7.16826Z" fill="#47AF5B"/>
<path d="M26.7875 7.58866C26.7875 9.58795 28.3877 11.2086 30.3619 11.2086C32.336 11.2086 33.9363 9.58795 33.9363 7.58866C33.9363 5.5897 32.336 3.96875 30.3619 3.96875C28.3877 3.96875 26.7875 5.5897 26.7875 7.58866Z" fill="#47AF5B"/>
</svg>
