<svg width="31" height="23" viewBox="0 0 31 23" fill="none" xmlns="http://www.w3.org/2000/svg">
<mask id="mask0_153_411" style="mask-type:luminance" maskUnits="userSpaceOnUse" x="0" y="0" width="31" height="23">
<path d="M0.298584 0.148438H30.2441V22.9021H0.298584V0.148438Z" fill="white"/>
</mask>
<g mask="url(#mask0_153_411)">
<path d="M18.7279 0.184274H1.71677C1.34134 0.184274 0.981225 0.334996 0.715359 0.60352C0.44951 0.872044 0.299755 1.23629 0.298828 1.61648V12.8495C0.3044 13.2285 0.455549 13.5906 0.720233 13.8587C0.984916 14.1268 1.34249 14.2798 1.71677 14.2855H4.61741V18.9214L9.24543 14.2855H10.0407V5.56382C10.0407 5.08719 10.2276 4.63007 10.5605 4.29316C10.8932 3.95621 11.3444 3.76692 11.8149 3.76692H20.1428V1.61658C20.1428 1.23683 19.9938 0.872387 19.7286 0.603857C19.4632 0.335099 19.1035 0.184371 18.7284 0.184371L18.7279 0.184274ZM28.83 4.13126H11.8147C11.4395 4.13126 11.0799 4.28222 10.8147 4.55075C10.5493 4.81951 10.4003 5.18376 10.4003 5.56371V16.7997C10.4014 17.1792 10.5507 17.543 10.8156 17.8115C11.0808 18.0798 11.44 18.231 11.8147 18.2322H21.2975L25.9255 22.8682V18.2322H28.8298C29.2046 18.231 29.5638 18.0798 29.8289 17.8115C30.0938 17.543 30.2431 17.1792 30.2441 16.7997V5.56371C30.2431 5.18396 30.0938 4.82018 29.8289 4.55189C29.5638 4.28337 29.2046 4.13217 28.8298 4.13123L28.83 4.13126ZM15.5147 14.2374V14.2376C15.1472 14.2376 14.7947 14.0897 14.5349 13.8266C14.2751 13.5635 14.1291 13.2065 14.1291 12.8344C14.1291 12.4622 14.2751 12.1055 14.5349 11.8421C14.7948 11.579 15.1472 11.4313 15.5147 11.4313C15.8823 11.4313 16.2345 11.579 16.4945 11.8421C16.7543 12.1055 16.9001 12.4622 16.9001 12.8344C16.9001 13.2047 16.7557 13.56 16.4982 13.8226C16.2407 14.0855 15.8911 14.2346 15.5254 14.2377L15.5147 14.2374ZM20.3118 14.2374V14.2376C19.9445 14.2376 19.5921 14.0897 19.3322 13.8266C19.0724 13.5635 18.9264 13.2065 18.9264 12.8344C18.9264 12.4622 19.0724 12.1055 19.3322 11.8421C19.5921 11.579 19.9445 11.4313 20.3118 11.4313C20.6793 11.4313 21.0318 11.579 21.2916 11.8421C21.5514 12.1055 21.6974 12.4622 21.6974 12.8344C21.6974 13.2047 21.553 13.56 21.2953 13.8226C21.0378 14.0855 20.6881 14.2346 20.3227 14.2377L20.3118 14.2374ZM25.1089 14.2374L25.1091 14.2376C24.7415 14.2376 24.3891 14.0897 24.1293 13.8266C23.8695 13.5635 23.7235 13.2065 23.7235 12.8344C23.7235 12.4622 23.8695 12.1055 24.1293 11.8421C24.3891 11.579 24.7416 11.4313 25.1091 11.4313C25.4764 11.4313 25.8288 11.579 26.0886 11.8421C26.3487 12.1055 26.4945 12.4622 26.4945 12.8344C26.4945 13.2028 26.3517 13.5565 26.0963 13.8188C25.8411 14.0815 25.4942 14.2317 25.1307 14.2376L25.1089 14.2374ZM28.8302 4.13126H11.8149C11.4397 4.13126 11.08 4.28222 10.8149 4.55075C10.5495 4.81951 10.4005 5.18376 10.4005 5.56371V16.7997C10.4016 17.1792 10.5509 17.543 10.8158 17.8115C11.081 18.0798 11.4402 18.231 11.8149 18.2322H21.2977L25.9257 22.8682V18.2322H28.83C29.2048 18.231 29.5639 18.0798 29.8291 17.8115C30.094 17.543 30.2433 17.1792 30.2442 16.7997V5.56371C30.2433 5.18396 30.094 4.82018 29.8291 4.55189C29.564 4.28337 29.2048 4.1322 28.83 4.13126H28.8302ZM15.5149 14.2374V14.2376C15.1474 14.2376 14.7949 14.0897 14.5351 13.8266C14.2753 13.5635 14.1293 13.2065 14.1293 12.8344C14.1293 12.4622 14.2753 12.1055 14.5351 11.8421C14.7949 11.579 15.1474 11.4313 15.5149 11.4313C15.8824 11.4313 16.2346 11.579 16.4947 11.8421C16.7545 12.1055 16.9003 12.4622 16.9003 12.8344C16.9003 13.2047 16.7559 13.56 16.4984 13.8226C16.2409 14.0855 15.8912 14.2346 15.5256 14.2377L15.5149 14.2374ZM20.312 14.2374V14.2376C19.9447 14.2376 19.5922 14.0897 19.3324 13.8266C19.0726 13.5635 18.9266 13.2065 18.9266 12.8344C18.9266 12.4622 19.0726 12.1055 19.3324 11.8421C19.5922 11.579 19.9447 11.4313 20.312 11.4313C20.6795 11.4313 21.0319 11.579 21.2917 11.8421C21.5516 12.1055 21.6976 12.4622 21.6976 12.8344C21.6976 13.2047 21.5532 13.56 21.2955 13.8226C21.038 14.0855 20.6883 14.2346 20.3229 14.2377L20.312 14.2374ZM25.109 14.2374L25.1093 14.2376C24.7417 14.2376 24.3893 14.0897 24.1295 13.8266C23.8697 13.5635 23.7236 13.2065 23.7236 12.8344C23.7236 12.4622 23.8697 12.1055 24.1295 11.8421C24.3893 11.579 24.7418 11.4313 25.1093 11.4313C25.4766 11.4313 25.829 11.579 26.0888 11.8421C26.3488 12.1055 26.4947 12.4622 26.4947 12.8344C26.4947 13.2028 26.3519 13.5565 26.0965 13.8188C25.8413 14.0815 25.4944 14.2317 25.1308 14.2376L25.109 14.2374ZM11.8151 3.76648H20.143V1.61613C20.143 1.23639 19.9939 0.871942 19.7288 0.603412C19.4634 0.334653 19.1037 0.183925 18.7285 0.183925H1.71738C1.34194 0.183925 0.981831 0.334647 0.715965 0.603171C0.450116 0.871695 0.300362 1.23594 0.299435 1.61613V12.8491C0.305007 13.2282 0.456155 13.5902 0.720839 13.8583C0.985522 14.1264 1.3431 14.2795 1.71738 14.2851H4.61801V18.9211L9.24604 14.2851H10.0413V5.56347C10.0413 5.08684 10.2282 4.62972 10.5611 4.29281C10.8938 3.95586 11.345 3.76657 11.8156 3.76657L11.8151 3.76648ZM28.8305 4.13094H11.8151C11.4399 4.13094 11.0803 4.2819 10.8151 4.55043C10.5498 4.81919 10.4007 5.18344 10.4007 5.56339V16.7994C10.4018 17.1789 10.5511 17.5427 10.8161 17.8112C11.0812 18.0795 11.4404 18.2307 11.8152 18.2319H21.2979L25.9259 22.8678V18.2319H28.8302C29.205 18.2307 29.5642 18.0795 29.8293 17.8112C30.0943 17.5427 30.2436 17.1789 30.2445 16.7994V5.56339C30.2436 5.18364 30.0943 4.81986 29.8293 4.55157C29.5642 4.28305 29.205 4.13185 28.8302 4.13091L28.8305 4.13094ZM15.5151 14.2371V14.2373C15.1476 14.2373 14.7952 14.0894 14.5354 13.8263C14.2756 13.5632 14.1295 13.2062 14.1295 12.834C14.1295 12.4619 14.2756 12.1051 14.5354 11.8418C14.7952 11.5787 15.1476 11.431 15.5151 11.431C15.8827 11.431 16.2349 11.5787 16.4949 11.8418C16.7547 12.1051 16.9005 12.4619 16.9005 12.834C16.9005 13.2044 16.7561 13.5597 16.4986 13.8223C16.2411 14.0852 15.8915 14.2343 15.5258 14.2373L15.5151 14.2371ZM20.3122 14.2371V14.2373C19.9449 14.2373 19.5925 14.0894 19.3327 13.8263C19.0729 13.5632 18.9268 13.2062 18.9268 12.834C18.9268 12.4619 19.0729 12.1051 19.3327 11.8418C19.5925 11.5787 19.9449 11.431 20.3122 11.431C20.6797 11.431 21.0322 11.5787 21.292 11.8418C21.5518 12.1051 21.6978 12.4619 21.6978 12.834C21.6978 13.2044 21.5534 13.5597 21.2957 13.8223C21.0382 14.0852 20.6885 14.2343 20.3231 14.2373L20.3122 14.2371ZM25.1093 14.2371L25.1095 14.2373C24.742 14.2373 24.3895 14.0894 24.1297 13.8263C23.8699 13.5632 23.7239 13.2062 23.7239 12.834C23.7239 12.4619 23.8699 12.1051 24.1297 11.8418C24.3895 11.5787 24.742 11.431 25.1095 11.431C25.4768 11.431 25.8292 11.5787 26.089 11.8418C26.3491 12.1051 26.4949 12.4619 26.4949 12.834C26.4949 13.2025 26.3521 13.5561 26.0967 13.8185C25.8415 14.0812 25.4947 14.2314 25.1311 14.2373L25.1093 14.2371ZM11.8154 3.76616H20.1432V1.61581C20.1432 1.23607 19.9942 0.871623 19.729 0.603093C19.4636 0.334335 19.104 0.183606 18.7288 0.183606H1.71762C1.34218 0.183606 0.982069 0.334329 0.716202 0.602853C0.450354 0.871376 0.3006 1.23562 0.299672 1.61581V12.8488C0.305245 13.2278 0.456393 13.5899 0.721076 13.858C0.98576 14.1261 1.34333 14.2792 1.71762 14.2848H4.61825V18.9208L9.24628 14.2848H10.0415V5.56315C10.0415 5.08652 10.2284 4.6294 10.5613 4.29249C10.8941 3.95554 11.3452 3.76626 11.8158 3.76626L11.8154 3.76616ZM18.7286 0.183594H1.71742C1.34199 0.183594 0.981879 0.334316 0.716013 0.60284C0.450164 0.871363 0.300409 1.23561 0.299482 1.6158V12.8488C0.305054 13.2278 0.456203 13.5899 0.720887 13.858C0.98557 14.1261 1.34314 14.2791 1.71742 14.2848H4.61806V18.9208L9.24609 14.2848H10.0413V5.56313C10.0413 5.08651 10.2282 4.62939 10.5612 4.29248C10.8939 3.95553 11.345 3.76624 11.8156 3.76624H20.1435V1.6159C20.1435 1.23615 19.9944 0.871707 19.7293 0.603177C19.4639 0.334418 19.1042 0.18369 18.729 0.18369L18.7286 0.183594ZM28.8307 4.13058H11.8154C11.4402 4.13058 11.0805 4.28154 10.8154 4.55007C10.55 4.81883 10.4009 5.18308 10.4009 5.56303V16.799C10.4021 17.1785 10.5514 17.5423 10.8163 17.8108C11.0814 18.0791 11.4406 18.2303 11.8154 18.2315H21.2981L25.9262 22.8675V18.2315H28.8305C29.2052 18.2303 29.5644 18.0791 29.8296 17.8108C30.0945 17.5423 30.2438 17.1786 30.2447 16.799V5.56303C30.2438 5.18328 30.0945 4.8195 29.8296 4.55121C29.5644 4.28269 29.2052 4.13149 28.8305 4.13055L28.8307 4.13058ZM15.5154 14.2367V14.2369C15.1478 14.2369 14.7954 14.0891 14.5356 13.8259C14.2758 13.5628 14.1297 13.2059 14.1297 12.8337C14.1297 12.4615 14.2758 12.1048 14.5356 11.8414C14.7954 11.5783 15.1479 11.4306 15.5154 11.4306C15.8829 11.4306 16.2351 11.5783 16.4951 11.8414C16.755 12.1048 16.9008 12.4615 16.9008 12.8337C16.9008 13.204 16.7563 13.5593 16.4989 13.822C16.2414 14.0848 15.8917 14.2339 15.526 14.237L15.5154 14.2367ZM20.3124 14.2367V14.2369C19.9451 14.2369 19.5927 14.0891 19.3329 13.8259C19.0731 13.5628 18.9271 13.2059 18.9271 12.8337C18.9271 12.4615 19.0731 12.1048 19.3329 11.8414C19.5927 11.5783 19.9452 11.4306 20.3124 11.4306C20.68 11.4306 21.0324 11.5783 21.2922 11.8414C21.552 12.1048 21.6981 12.4615 21.6981 12.8337C21.6981 13.204 21.5537 13.5593 21.2959 13.822C21.0384 14.0848 20.6888 14.2339 20.3233 14.237L20.3124 14.2367ZM25.1095 14.2367L25.1097 14.2369C24.7422 14.2369 24.3898 14.0891 24.13 13.8259C23.8702 13.5628 23.7241 13.2059 23.7241 12.8337C23.7241 12.4615 23.8702 12.1048 24.13 11.8414C24.3898 11.5783 24.7422 11.4306 25.1097 11.4306C25.4771 11.4306 25.8295 11.5783 26.0893 11.8414C26.3493 12.1048 26.4951 12.4615 26.4951 12.8337C26.4951 13.2021 26.3523 13.5558 26.0969 13.8182C25.8418 14.0808 25.4949 14.2311 25.1313 14.2369L25.1095 14.2367ZM28.8309 4.13058H11.8155C11.4403 4.13058 11.0807 4.28154 10.8155 4.55007C10.5502 4.81883 10.4011 5.18308 10.4011 5.56303V16.799C10.4023 17.1785 10.5516 17.5423 10.8165 17.8108C11.0816 18.0791 11.4408 18.2303 11.8156 18.2315H21.2983L25.9263 22.8675V18.2315H28.8307C29.2054 18.2303 29.5646 18.0791 29.8298 17.8108C30.0947 17.5423 30.244 17.1786 30.2449 16.799V5.56303C30.244 5.18328 30.0947 4.8195 29.8298 4.55121C29.5646 4.28269 29.2054 4.13152 28.8307 4.13058H28.8309ZM15.5156 14.2367V14.2369C15.148 14.2369 14.7956 14.0891 14.5358 13.8259C14.276 13.5628 14.1299 13.2059 14.1299 12.8337C14.1299 12.4615 14.276 12.1048 14.5358 11.8414C14.7956 11.5783 15.148 11.4306 15.5156 11.4306C15.8831 11.4306 16.2353 11.5783 16.4953 11.8414C16.7551 12.1048 16.9009 12.4615 16.9009 12.8337C16.9009 13.204 16.7565 13.5593 16.499 13.822C16.2416 14.0848 15.8919 14.2339 15.5262 14.237L15.5156 14.2367ZM20.3126 14.2367V14.2369C19.9453 14.2369 19.5929 14.0891 19.3331 13.8259C19.0733 13.5628 18.9272 13.2059 18.9272 12.8337C18.9272 12.4615 19.0733 12.1048 19.3331 11.8414C19.5929 11.5783 19.9454 11.4306 20.3126 11.4306C20.6802 11.4306 21.0326 11.5783 21.2924 11.8414C21.5522 12.1048 21.6982 12.4615 21.6982 12.8337C21.6982 13.204 21.5538 13.5593 21.2961 13.822C21.0386 14.0848 20.689 14.2339 20.3235 14.237L20.3126 14.2367ZM25.1097 14.2367L25.1099 14.2369C24.7424 14.2369 24.3899 14.0891 24.1301 13.8259C23.8703 13.5628 23.7243 13.2059 23.7243 12.8337C23.7243 12.4615 23.8703 12.1048 24.1301 11.8414C24.39 11.5783 24.7424 11.4306 25.1099 11.4306C25.4772 11.4306 25.8297 11.5783 26.0895 11.8414C26.3495 12.1048 26.4953 12.4615 26.4953 12.8337C26.4953 13.2021 26.3525 13.5558 26.0971 13.8182C25.842 14.0808 25.4951 14.2311 25.1315 14.2369L25.1097 14.2367ZM18.729 0.183594H1.71784C1.34241 0.183594 0.982295 0.334316 0.716428 0.60284C0.45058 0.871363 0.300826 1.23561 0.299898 1.6158V12.8488C0.305471 13.2278 0.456619 13.5899 0.721302 13.858C0.985986 14.1261 1.34356 14.2791 1.71784 14.2848H4.61848V18.9208L9.2465 14.2848H10.0417V5.56313C10.0417 5.08651 10.2286 4.62939 10.5616 4.29248C10.8943 3.95553 11.3454 3.76624 11.816 3.76624H20.1439V1.6159C20.1439 1.23615 19.9948 0.871707 19.7297 0.603177C19.4643 0.334418 19.1046 0.18369 18.7294 0.18369L18.729 0.183594Z" fill="#47AF5B"/>
</g>
</svg>
