<svg width="32" height="30" viewBox="0 0 32 30" fill="none" xmlns="http://www.w3.org/2000/svg">
<path d="M21.6887 0.397461C16.4224 0.397461 12.1484 4.46106 12.1484 9.46799C12.1484 10.0485 12.1484 10.629 12.2629 11.1732L0.699951 22.1667V29.4231H12.1484V22.1667H19.7807V18.5385L19.8951 18.4297C20.4676 18.5385 21.0781 18.5385 21.6887 18.5385C26.955 18.5385 31.2291 14.4749 31.2291 9.46799C31.2291 4.46106 26.955 0.397461 21.6887 0.397461ZM23.5968 4.02567C25.6957 4.02567 27.4129 5.65836 27.4129 7.65388C27.4129 9.64939 25.6957 11.2821 23.5968 11.2821C21.4979 11.2821 19.7807 9.64939 19.7807 7.65388C19.7807 5.65836 21.4979 4.02567 23.5968 4.02567Z" fill="#B3B3B3"/>
</svg>
